<?xml version="1.0" encoding="UTF-8"?>
<svg id="Layer_1" data-name="Layer 1" xmlns="http://www.w3.org/2000/svg" version="1.1" viewBox="0 0 500 500">
  <defs>
    <style>
      .cls-1 {
        fill: #fff;
        stroke-width: 0px;
      }
    </style>
  </defs>
  <path class="cls-1" d="M250,158h-.1c-34.6,0-64.5-33.9-64.5-33.9,0,0,21.6-33.9,64.5-33.9h.1c42.9,0,64.5,33.9,64.5,33.9,0,0-29.9,33.9-64.5,33.9M250,78.4h-.2c-60.1,0-81.4,45.7-81.4,45.7,0,0,4.6,14.9,38,37,27.2,18,36,30.5,43.6,53.1,7.5-22.6,16.4-35.1,43.6-53.1,33.4-22.1,37.9-37,37.9-37,0,0-21.3-45.7-81.4-45.7"/>
  <path class="cls-1" d="M243.4,128.6c-5.6,0-10-4.7-10-10.6s4.5-10.6,10-10.6,10.1,4.7,10.1,10.6-4.5,10.6-10.1,10.6M249.8,95.3c-16.3,0-29.6,13.1-29.6,29.2s13.2,29.2,29.6,29.2,29.6-13.1,29.6-29.2-13.2-29.2-29.6-29.2"/>
  <path class="cls-1" d="M126.4,113.3c33.1-28.6,76.3-45.9,123.5-45.9s90.5,17.3,123.6,46c4.7-4.3,8.8-8.5,12.3-12.8-12.2-15.1-16.6-32.8-16.4-41.9-9.8,7.9-29,8.8-50.3,2.3-2-.7-4.1-1.4-6.1-2.1-22.4-8.2-46.3-24.3-63.2-49-17.2,25-41.5,41.3-64.2,49.3-1.1.4-2.2.7-3.3,1.1-22,7.1-42.1,6.4-52.2-1.7.2,9.1-4.2,26.6-16.3,41.7,3.5,4.3,7.7,8.6,12.4,12.9"/>
  <path class="cls-1" d="M439,253.6c0,.9,0,1.9,0,2.8,0,104.4-84.7,189.1-189.1,189.1S60.8,360.9,60.8,256.5s0-2,0-3c-5.8-5.9-11.1-12.4-15.7-19.4-1.4,10.5-2.2,21.2-2.2,32.2,0,164.5,207,223.8,207,223.8,0,0,206.9-63.9,206.9-223.8s-.7-21.5-2.1-32c-4.6,7-9.9,13.5-15.7,19.4"/>
  <path class="cls-1" d="M202.1,178.6c-36.6-23.6-106.5-61.9-108.9-99.2-151.4,157.5,67.6,219,67.6,219,0,0-48.2,10.4-48.2,43.7,0,57.5,83.4,82.4,83.4,82.4,0,0,48.5-15.6,48.5-139.7s-8.6-84.6-42.3-106.2"/>
  <path class="cls-1" d="M297.9,178.6c36.6-23.6,106.6-61.9,108.9-99.2,151.4,157.5-67.6,219-67.6,219,0,0,48.2,10.4,48.2,43.7,0,57.5-83.4,82.4-83.4,82.4,0,0-48.5-15.6-48.5-139.7s8.6-84.6,42.3-106.2"/>
</svg>